<?xml version="1.0" encoding="utf-8"?>
<!-- Generator: Adobe Illustrator 27.3.1, SVG Export Plug-In . SVG Version: 6.00 Build 0)  -->
<svg version="1.1" id="Calque_1" xmlns="http://www.w3.org/2000/svg" xmlns:xlink="http://www.w3.org/1999/xlink" x="0px" y="0px"
	 viewBox="0 0 300 300" style="enable-background:new 0 0 300 300;" xml:space="preserve">
<style type="text/css">
	.st0{fill:#1D71B8;}
	.st1{fill:#FFFFFF;}
</style>
<circle class="st0" cx="150" cy="150.4" r="110.5"/>
<path class="st1" d="M128.2,127.9c0-0.9,0-1.6,0-2.4c0-9,0-18.1,0-27.1c0-4.5,1.6-6.1,6.1-6.1c10.9,0,21.7,0,32.6,0
	c4.5,0,6.1,1.6,6.1,6.2c0,9.7,0,19.4,0,29.4c0.8,0,1.5,0,2.2,0c9,0,18.1,0,27.1,0c4.5,0,6.3,1.8,6.3,6.3c0,10.7,0,21.4,0,32.2
	c0,4.8-1.6,6.4-6.3,6.4c-8.9,0-17.9,0-26.9,0c-0.7,0-1.5,0-2.4,0c0,0.9,0,1.6,0,2.3c0,9,0,18.1,0,27.1c0,4.5-1.6,6.2-6.1,6.2
	c-10.9,0-21.7,0-32.6,0c-4.5,0-6.1-1.6-6.1-6.1c0-9,0-18.1,0-27.1c0-0.7,0-1.4,0-2.4c-0.9,0-1.6,0-2.3,0c-9,0-18.1,0-27.1,0
	c-4.5,0-6.1-1.6-6.1-6.1c0-10.9,0-21.7,0-32.6c0-4.5,1.6-6.1,6.1-6.1C108.5,127.9,118.1,127.9,128.2,127.9z M101.7,137.1
	c0,9,0,17.7,0,26.6c0.9,0,1.6,0,2.3,0c9,0,18.1,0,27.1,0c4.5,0,6.1,1.6,6.1,6.1c0,9.1,0,18.2,0,27.3c0,0.7,0,1.4,0,2.2
	c9,0,17.7,0,26.6,0c0-0.9,0-1.6,0-2.3c0-9,0-18.1,0-27.1c0-4.5,1.6-6.2,6.1-6.2c9.2,0,18.3,0,27.5,0c0.7,0,1.4,0,2.3,0
	c0-8.9,0-17.7,0-26.6c-0.9,0-1.6,0-2.3,0c-9.2,0-18.5,0-27.7,0c-3.8,0-5.5-1.7-5.5-5.5c0-9.3,0-18.6,0-27.9c0-0.7,0-1.4,0-2.2
	c-9.1,0-17.9,0-27,0c0,0.9,0,1.6,0,2.3c0,9.2,0,18.3,0,27.5c0,4-1.8,5.7-5.7,5.7c-5.4,0-10.7,0-16.1,0
	C111,137.1,106.4,137.1,101.7,137.1z"/>
</svg>
