<?xml version="1.0" encoding="utf-8"?>
<!-- Generator: Adobe Illustrator 27.3.1, SVG Export Plug-In . SVG Version: 6.00 Build 0)  -->
<svg version="1.1" id="Calque_1" xmlns="http://www.w3.org/2000/svg" xmlns:xlink="http://www.w3.org/1999/xlink" x="0px" y="0px"
	 viewBox="0 0 300 300" style="enable-background:new 0 0 300 300;" xml:space="preserve">
<style type="text/css">
	.st0{fill:#6BB869;}
	.st1{fill:#FFFFFF;}
</style>
<circle class="st0" cx="150.5" cy="150.4" r="140"/>
<path class="st1" d="M121.8,121.5c0-1.2,0-2.1,0-3.1c0-11.6,0-23.3,0-34.9c0-5.8,2.1-7.9,7.9-7.9c14,0,27.9,0,41.9,0
	c5.8,0,7.9,2.1,7.9,8c0,12.5,0,25,0,37.9c1,0,1.9,0,2.8,0c11.6,0,23.3,0,34.9,0c5.8,0,8.1,2.3,8.1,8.1c0,13.8,0,27.6,0,41.4
	c0,6.2-2,8.2-8.1,8.2c-11.5,0-23.1,0-34.6,0c-0.9,0-1.9,0-3.1,0c0,1.2,0,2.1,0,3c0,11.6,0,23.3,0,34.9c0,5.8-2.1,8-7.9,8
	c-14,0-27.9,0-41.9,0c-5.8,0-7.9-2.1-7.9-7.9c0-11.6,0-23.3,0-34.9c0-0.9,0-1.8,0-3.1c-1.2,0-2.1,0-3,0c-11.6,0-23.3,0-34.9,0
	c-5.8,0-7.9-2.1-7.9-7.9c0-14,0-27.9,0-41.9c0-5.8,2.1-7.9,7.9-7.9C96.4,121.5,108.8,121.5,121.8,121.5z M87.7,133.3
	c0,11.6,0,22.8,0,34.2c1.1,0,2,0,3,0c11.6,0,23.3,0,34.9,0c5.8,0,7.9,2.1,7.9,7.9c0,11.7,0,23.4,0,35.1c0,0.9,0,1.8,0,2.8
	c11.6,0,22.8,0,34.2,0c0-1.1,0-2,0-3c0-11.6,0-23.3,0-34.9c0-5.8,2.1-8,7.9-8c11.8,0,23.6,0,35.4,0c0.9,0,1.8,0,2.9,0
	c0-11.5,0-22.8,0-34.2c-1.1,0-2,0-3,0c-11.9,0-23.8,0-35.7,0c-4.9,0-7.1-2.2-7.1-7.1c0-12,0-23.9,0-35.9c0-0.9,0-1.8,0-2.8
	c-11.7,0-23.1,0-34.7,0c0,1.1,0,2.1,0,3c0,11.8,0,23.6,0,35.4c0,5.1-2.3,7.4-7.4,7.4c-6.9,0-13.8,0-20.7,0
	C99.6,133.3,93.7,133.3,87.7,133.3z"/>
</svg>
